<svg width="24" height="24" viewBox="0 0 24 24" fill="none" xmlns="http://www.w3.org/2000/svg">
<path fill-rule="evenodd" clip-rule="evenodd" d="M17.9925 5H6.00253C5.15095 5 4.68907 5.99649 5.23947 6.64632L9.0523 11.1479C9.66421 11.8703 10 12.7864 10 13.7332V17.9978C10 18.7271 10.7554 19.2111 11.4179 18.9063L13.4179 17.9863C13.7727 17.8231 14 17.4683 14 17.0778V13.7325C14 12.7866 14.3353 11.8712 14.9463 11.149L18.7559 6.64587C19.3058 5.99594 18.8438 5 17.9925 5ZM6.00253 3H17.9925C20.5464 3 21.9323 5.98782 20.2828 7.93762L16.4731 12.4408C16.1677 12.8019 16 13.2595 16 13.7325V17.0778C16 18.2493 15.3181 19.3137 14.2537 19.8033L12.2537 20.7233C10.2662 21.6376 8.00003 20.1855 8.00003 17.9978V13.7332C8.00003 13.2598 7.83212 12.8018 7.52617 12.4405L3.71333 7.93896C2.06213 5.98949 3.44776 3 6.00253 3Z" fill="black"/>
</svg>
